<svg width="23" height="23" viewBox="0 0 23 23" fill="none" xmlns="http://www.w3.org/2000/svg">
<circle cx="11.5" cy="11.5" r="11.5" fill="#FC6B40"/>
<path d="M17.1006 9.75799C16.9422 9.75799 16.7903 9.82159 16.6782 9.9348C16.5662 10.048 16.5032 10.2016 16.5032 10.3617V14.5874C16.5032 14.7475 16.4403 14.901 16.3283 15.0142C16.2162 15.1275 16.0643 15.1911 15.9058 15.1911H7.54221C7.38377 15.1911 7.23181 15.1275 7.11978 15.0142C7.00775 14.901 6.94481 14.7475 6.94481 14.5874V9.75799C6.94481 9.59788 7.00775 9.44433 7.11978 9.33112C7.23181 9.21791 7.38377 9.15431 7.54221 9.15431H8.73701C8.86729 9.16118 8.9962 9.12478 9.10408 9.05065C9.21195 8.97653 9.29285 8.86876 9.33442 8.74381L9.65701 7.75379C9.69709 7.63388 9.77345 7.52974 9.87529 7.45608C9.97713 7.38242 10.0993 7.34296 10.2245 7.34329H13.5162C13.6747 7.34329 13.8266 7.27969 13.9387 7.16647C14.0507 7.05326 14.1136 6.89972 14.1136 6.73961C14.1136 6.57951 14.0507 6.42596 13.9387 6.31275C13.8266 6.19954 13.6747 6.13594 13.5162 6.13594H10.1947C9.81924 6.13665 9.4535 6.25648 9.14908 6.47853C8.84466 6.70057 8.61694 7.01361 8.49805 7.37347L8.30688 7.97715H7.54221C7.06688 7.97715 6.61103 8.16795 6.27493 8.50758C5.93882 8.84721 5.75 9.30786 5.75 9.78817V14.6176C5.75 15.0979 5.93882 15.5585 6.27493 15.8982C6.61103 16.2378 7.06688 16.4286 7.54221 16.4286H15.9058C16.3812 16.4286 16.837 16.2378 17.1731 15.8982C17.5092 15.5585 17.6981 15.0979 17.6981 14.6176V10.3918C17.7021 10.3101 17.6896 10.2283 17.6614 10.1515C17.6332 10.0748 17.5899 10.0046 17.534 9.94533C17.4781 9.88604 17.4109 9.83885 17.3364 9.80665C17.2619 9.77444 17.1817 9.75788 17.1006 9.75799ZM11.724 9.15431C11.2514 9.15431 10.7894 9.29593 10.3964 9.56126C10.0035 9.82659 9.69718 10.2037 9.51631 10.6449C9.33545 11.0862 9.28813 11.5717 9.38033 12.0401C9.47253 12.5085 9.70012 12.9388 10.0343 13.2765C10.3685 13.6142 10.7943 13.8441 11.2578 13.9373C11.7214 14.0305 12.2018 13.9827 12.6385 13.7999C13.0751 13.6171 13.4483 13.3076 13.7109 12.9105C13.9735 12.5134 14.1136 12.0466 14.1136 11.569C14.1136 10.9286 13.8619 10.3144 13.4137 9.86156C12.9656 9.40872 12.3578 9.15431 11.724 9.15431ZM11.724 12.7764C11.4877 12.7764 11.2567 12.7055 11.0602 12.5729C10.8637 12.4402 10.7106 12.2517 10.6202 12.031C10.5297 11.8104 10.5061 11.5677 10.5522 11.3335C10.5983 11.0993 10.7121 10.8841 10.8792 10.7153C11.0463 10.5464 11.2592 10.4314 11.4909 10.3849C11.7227 10.3383 11.9629 10.3622 12.1813 10.4536C12.3996 10.5449 12.5862 10.6997 12.7175 10.8982C12.8488 11.0968 12.9188 11.3302 12.9188 11.569C12.9188 11.8892 12.7929 12.1963 12.5689 12.4227C12.3448 12.6492 12.0409 12.7764 11.724 12.7764ZM18.2955 6.13594H17.6981V5.53226C17.6981 5.37216 17.6351 5.21861 17.5231 5.1054C17.411 4.99219 17.2591 4.92859 17.1006 4.92859C16.9422 4.92859 16.7903 4.99219 16.6782 5.1054C16.5662 5.21861 16.5032 5.37216 16.5032 5.53226V6.13594H15.9058C15.7474 6.13594 15.5955 6.19954 15.4834 6.31275C15.3714 6.42596 15.3084 6.57951 15.3084 6.73961C15.3084 6.89972 15.3714 7.05326 15.4834 7.16647C15.5955 7.27969 15.7474 7.34329 15.9058 7.34329H16.5032V7.94696C16.5032 8.10707 16.5662 8.26061 16.6782 8.37382C16.7903 8.48704 16.9422 8.55064 17.1006 8.55064C17.2591 8.55064 17.411 8.48704 17.5231 8.37382C17.6351 8.26061 17.6981 8.10707 17.6981 7.94696V7.34329H18.2955C18.4539 7.34329 18.6058 7.27969 18.7179 7.16647C18.8299 7.05326 18.8929 6.89972 18.8929 6.73961C18.8929 6.57951 18.8299 6.42596 18.7179 6.31275C18.6058 6.19954 18.4539 6.13594 18.2955 6.13594Z" fill="white"/>
</svg>
