<svg xmlns="http://www.w3.org/2000/svg" xmlns:xlink="http://www.w3.org/1999/xlink" version="1.1" width="256" height="256" viewBox="0 0 256 256" xml:space="preserve">

<defs>
</defs>
<g style="stroke: none; stroke-width: 0; stroke-dasharray: none; stroke-linecap: butt; stroke-linejoin: miter; stroke-miterlimit: 10; fill: none; fill-rule: nonzero; opacity: 1;" transform="translate(45.02412451361867 45.024124513618645) scale(1.83 1.83)" >
	<circle cx="26.055" cy="31.175" r="26.055" style="stroke: none; stroke-width: 1; stroke-dasharray: none; stroke-linecap: butt; stroke-linejoin: miter; stroke-miterlimit: 10; fill: rgb(0,0,0); fill-rule: nonzero; opacity: 1;" transform="  matrix(1 0 0 1 0 0) "/>
	<circle cx="63.945" cy="58.825" r="26.055" style="stroke: none; stroke-width: 1; stroke-dasharray: none; stroke-linecap: butt; stroke-linejoin: miter; stroke-miterlimit: 10; fill: rgb(0,0,0); fill-rule: nonzero; opacity: 1;" transform="  matrix(1 0 0 1 0 0) "/>
	<path d="M 36.826 20.404 c -0.781 -0.781 -2.048 -0.781 -2.828 0 l -7.943 7.943 l -7.943 -7.943 c -0.781 -0.781 -2.048 -0.781 -2.828 0 c -0.781 0.781 -0.781 2.047 0 2.828 l 7.943 7.943 l -7.943 7.943 c -0.781 0.781 -0.781 2.047 0 2.828 c 0.391 0.391 0.902 0.586 1.414 0.586 s 1.024 -0.195 1.414 -0.586 l 7.943 -7.943 l 7.943 7.943 c 0.391 0.391 0.902 0.586 1.414 0.586 s 1.024 -0.195 1.414 -0.586 c 0.781 -0.781 0.781 -2.047 0 -2.828 l -7.943 -7.943 l 7.943 -7.943 C 37.607 22.451 37.607 21.185 36.826 20.404 z" style="stroke: none; stroke-width: 1; stroke-dasharray: none; stroke-linecap: butt; stroke-linejoin: miter; stroke-miterlimit: 10; fill: rgb(255,255,255); fill-rule: nonzero; opacity: 1;" transform=" matrix(1 0 0 1 0 0) " stroke-linecap="round" />
	<path d="M 77.115 48.355 c -0.842 -0.718 -2.104 -0.617 -2.819 0.224 L 60.463 64.798 l -6.949 -7.212 c -0.767 -0.795 -2.033 -0.818 -2.828 -0.053 c -0.796 0.767 -0.819 2.033 -0.053 2.828 l 8.479 8.8 c 0.378 0.392 0.897 0.612 1.44 0.612 c 0.021 0 0.04 0 0.061 -0.001 c 0.564 -0.017 1.095 -0.271 1.461 -0.701 l 15.265 -17.896 C 78.056 50.334 77.956 49.072 77.115 48.355 z" style="stroke: none; stroke-width: 1; stroke-dasharray: none; stroke-linecap: butt; stroke-linejoin: miter; stroke-miterlimit: 10; fill: rgb(255,255,255); fill-rule: nonzero; opacity: 1;" transform=" matrix(1 0 0 1 0 0) " stroke-linecap="round" />
</g>
</svg>