<svg width="23" height="22" viewBox="0 0 23 22" fill="none" xmlns="http://www.w3.org/2000/svg">
<path d="M19.625 12.1667C19.677 11.8021 19.7291 11.4375 19.7291 11.0208C19.7291 10.6042 19.677 10.2396 19.625 9.87499L21.9687 8.20832C22.177 8.05207 22.2812 7.73957 22.125 7.47916L19.8333 3.62499C19.677 3.36457 19.4166 3.26041 19.1562 3.41666L16.552 4.61457C15.927 4.14582 15.302 3.78124 14.5729 3.46874L14.3125 0.604157C14.2604 0.34374 14.052 0.135406 13.7916 0.135406H9.31245C9.05204 0.135406 8.79162 0.34374 8.79162 0.604157L8.5312 3.46874C7.80204 3.78124 7.12495 4.14582 6.55204 4.61457L3.94787 3.41666C3.68745 3.31249 3.37495 3.41666 3.27079 3.62499L1.0312 7.47916C0.874955 7.73957 0.979121 8.05207 1.18745 8.20832L3.5312 9.87499C3.47912 10.2396 3.42704 10.6042 3.42704 11.0208C3.42704 11.4375 3.47912 11.8021 3.5312 12.1667L1.08329 13.8333C0.874955 13.9896 0.770788 14.3021 0.927038 14.5625L3.16662 18.4167C3.32287 18.6771 3.58329 18.7812 3.8437 18.625L6.44787 17.4271C7.07287 17.8958 7.69787 18.2604 8.42704 18.5729L8.68745 21.4375C8.73954 21.6979 8.94787 21.9062 9.20829 21.9062H13.6875C13.9479 21.9062 14.2083 21.6979 14.2083 21.4375L14.4687 18.5729C15.1979 18.2604 15.875 17.8958 16.4479 17.4271L19.052 18.625C19.3125 18.7292 19.625 18.625 19.7291 18.4167L21.9687 14.5625C22.125 14.3021 22.0208 13.9896 21.8125 13.8333L19.625 12.1667ZM11.5 16.2292C8.63537 16.2292 6.29162 13.8854 6.29162 11.0208C6.29162 8.15624 8.63537 5.81249 11.5 5.81249C14.3645 5.81249 16.7083 8.15624 16.7083 11.0208C16.7083 13.8854 14.3645 16.2292 11.5 16.2292Z" fill="#607D8B"/>
</svg>
